<svg width="26" height="26" viewBox="0 0 26 26" fill="none" xmlns="http://www.w3.org/2000/svg">
<g clip-path="url(#clip0_374_16)">
<path d="M13.2368 0.581543C6.39941 0.581543 1.10059 5.57861 1.10059 12.3281C1.10059 15.8584 2.55127 18.9092 4.9126 21.0166C5.32031 21.3833 5.23633 21.5957 5.30566 23.8599C5.31112 24.0185 5.3553 24.1733 5.43435 24.3109C5.5134 24.4485 5.62491 24.5647 5.75916 24.6493C5.89342 24.7339 6.04633 24.7844 6.20457 24.7963C6.36281 24.8082 6.52157 24.7813 6.66699 24.7178C9.25049 23.5801 9.28369 23.4902 9.72168 23.6094C17.2065 25.6694 25.3193 20.8794 25.3193 12.3281C25.3193 5.57861 20.0747 0.581543 13.2368 0.581543ZM20.5239 9.62109L16.9595 15.2642C16.8249 15.4764 16.6479 15.6585 16.4396 15.7991C16.2314 15.9397 15.9963 16.0357 15.7492 16.0813C15.502 16.1268 15.2482 16.1208 15.0035 16.0636C14.7588 16.0064 14.5285 15.8993 14.3271 15.749L11.4912 13.6265C11.3644 13.5314 11.2102 13.48 11.0518 13.48C10.8933 13.48 10.7391 13.5314 10.6123 13.6265L6.78564 16.5288C6.2749 16.916 5.60596 16.3042 5.9502 15.7637L9.51465 10.1206C9.6492 9.90835 9.82616 9.72619 10.0344 9.58554C10.2427 9.44489 10.4778 9.34879 10.7249 9.30327C10.9721 9.25775 11.226 9.26378 11.4707 9.32099C11.7154 9.3782 11.9456 9.48536 12.147 9.63574L14.9819 11.7578C15.1087 11.8529 15.2629 11.9043 15.4214 11.9043C15.5799 11.9043 15.7341 11.8529 15.8608 11.7578L19.6895 8.8584C20.1992 8.46875 20.8682 9.08008 20.5239 9.62109Z" fill="black"/>
</g>
<defs>
<clipPath id="clip0_374_16">
<rect width="25" height="25" fill="white" transform="translate(0.709961 0.190918)"/>
</clipPath>
</defs>
</svg>
