<svg width="26" height="26" viewBox="0 0 26 26" fill="none" xmlns="http://www.w3.org/2000/svg">
<g clip-path="url(#clip0_374_12)">
<path d="M24.5688 17.7272L19.1001 15.3835C18.8665 15.2839 18.6068 15.2629 18.3603 15.3237C18.1137 15.3845 17.8935 15.5237 17.7329 15.7204L15.311 18.6794C11.5101 16.8873 8.45127 13.8284 6.65918 10.0275L9.61816 7.60564C9.81527 7.44532 9.95478 7.22515 10.0156 6.97846C10.0764 6.73177 10.0551 6.47199 9.95508 6.23845L7.61133 0.769699C7.50152 0.517945 7.30731 0.312397 7.06218 0.188497C6.81706 0.0645972 6.53638 0.0301121 6.26855 0.0909879L1.19043 1.26286C0.932212 1.32249 0.701829 1.46788 0.536882 1.67531C0.371936 1.88273 0.282167 2.13994 0.282227 2.40495C0.282227 14.9294 10.4336 25.0612 22.9385 25.0612C23.2036 25.0614 23.4609 24.9717 23.6684 24.8067C23.8759 24.6417 24.0214 24.4113 24.0811 24.153L25.2529 19.0749C25.3134 18.8057 25.2782 18.5239 25.1533 18.278C25.0285 18.032 24.8218 17.8372 24.5688 17.7272Z" fill="black"/>
</g>
<defs>
<clipPath id="clip0_374_12">
<rect width="25" height="25" fill="white" transform="translate(0.282227 0.0611572)"/>
</clipPath>
</defs>
</svg>
